<svg id="Capa_1" dataName="Capa 1" xmlns="http://www.w3.org/2000/svg" viewBox="0 0 25.97 25.97">
<defs>
<style>.cls-1{fill:#354ca0;fill-rule:evenodd;}</style>
</defs>
<title>facebook</title>
<path class="cls-1" d="M14,23.83V14.12H11.38V10.63H14v-3c0-2.34,1.51-4.49,5-4.49a22.21,22.21,0,0,1,2.46.13l-.09,3.26H19.1c-1.26,0-1.46.58-1.46,1.55v2.55h3.79l-.16,3.49H17.64v9.71ZM2.16,0H23.81A2.16,2.16,0,0,1,26,2.16V23.81A2.16,2.16,0,0,1,23.81,26H2.16A2.16,2.16,0,0,1,0,23.81V2.16A2.16,2.16,0,0,1,2.16,0Z"/></svg>