<svg id="Capa_1" data-name="Capa 1" xmlns="http://www.w3.org/2000/svg" viewBox="0 0 30.66 24.92"><defs><style>.cls-1{fill:#42ade2;}</style></defs><title>ig</title><path class="cls-1" d="M30.66,3a12.45,12.45,0,0,1-3.61,1A6.31,6.31,0,0,0,29.82.46a12.82,12.82,0,0,1-4,1.53,6.29,6.29,0,0,0-10.88,4.3,6.29,6.29,0,0,0,.16,1.44,17.9,17.9,0,0,1-13-6.58,6.3,6.3,0,0,0,2,8.4,6.14,6.14,0,0,1-2.85-.79v.08A6.3,6.3,0,0,0,6.28,15a6.1,6.1,0,0,1-1.66.22,6.56,6.56,0,0,1-1.18-.11,6.29,6.29,0,0,0,5.87,4.37A12.58,12.58,0,0,1,1.5,22.18,12.33,12.33,0,0,1,0,22.09a17.75,17.75,0,0,0,9.64,2.83c11.58,0,17.9-9.59,17.9-17.9,0-.27,0-.54,0-.81A12.94,12.94,0,0,0,30.66,3"/></svg>