<?xml version="1.0" encoding="utf-8"?>
<!-- Generator: Adobe Illustrator 23.0.3, SVG Export Plug-In . SVG Version: 6.00 Build 0)  -->
<svg version="1.1" id="Capa_1" xmlns="http://www.w3.org/2000/svg" xmlns:xlink="http://www.w3.org/1999/xlink" x="0px" y="0px"
	 viewBox="0 0 102.5 86.7" style="enable-background:new 0 0 102.5 86.7;" xml:space="preserve">
<style type="text/css">
	.st0{fill:url(#SVGID_1_);}
	.st1{fill:url(#SVGID_2_);}
	.st2{fill:#4D4D4D;}
	.st3{fill:#FFFFFF;}
</style>
<g>
	<linearGradient id="SVGID_1_" gradientUnits="userSpaceOnUse" x1="6.9686" y1="18.1253" x2="96.9686" y2="18.1253">
		<stop  offset="0" style="stop-color:#0075BC"/>
		<stop  offset="0.1406" style="stop-color:#007FC3"/>
		<stop  offset="0.5166" style="stop-color:#5299D3"/>
		<stop  offset="0.8162" style="stop-color:#70AADD"/>
		<stop  offset="1" style="stop-color:#7AB0E0"/>
	</linearGradient>
	<polygon class="st0" points="71.3,15.3 71.3,8.1 32.7,8.1 32.7,15.3 7,15.3 7,28.1 37,28.1 37,21 67,21 67,28.1 97,28.1 97,15.3 	
		"/>
	<linearGradient id="SVGID_2_" gradientUnits="userSpaceOnUse" x1="6.9686" y1="47.41" x2="96.9686" y2="47.41">
		<stop  offset="0" style="stop-color:#0075BC"/>
		<stop  offset="0.1406" style="stop-color:#007FC3"/>
		<stop  offset="0.5166" style="stop-color:#5299D3"/>
		<stop  offset="0.8162" style="stop-color:#70AADD"/>
		<stop  offset="1" style="stop-color:#7AB0E0"/>
	</linearGradient>
	<rect x="7" y="41" class="st1" width="90" height="12.9"/>
	<g>
		<path class="st2" d="M13.8,69.8v9.8h-3.4v-9.8H7v-3.1h10.3v3.1H13.8z"/>
		<path class="st2" d="M24.9,79.7c-3.1,0-5.4-1.6-5.4-5.7v-7.4H23V74c0,1.6,0.6,2.6,1.9,2.6c1.3,0,1.9-1,1.9-2.6v-7.4h3.5V74
			C30.4,78.1,28,79.7,24.9,79.7z"/>
		<path class="st2" d="M38,79.7c-3.7,0-5.6-2.8-5.6-6.6c0-4.1,2.3-6.6,5.6-6.6c3,0,4.2,1.4,5.1,3.8L40,71.5c-0.4-1.2-0.9-1.9-2-1.9
			c-1.4,0-2,1.5-2,3.5c0,2,0.6,3.5,2.1,3.5c1.1,0,1.5-0.6,2.2-1.8l2.9,1.6C42.3,78.1,41,79.7,38,79.7z"/>
		<path class="st2" d="M50.5,79.7c-3.1,0-5.4-1.6-5.4-5.7v-7.4h3.5V74c0,1.6,0.6,2.6,1.9,2.6c1.3,0,1.9-1,1.9-2.6v-7.4H56V74
			C56,78.1,53.6,79.7,50.5,79.7z"/>
		<path class="st2" d="M94.2,79.5l-2.9-4.2c-0.5-0.8-1.6-2.4-1.9-3c0.1,0.6,0.1,2.3,0.1,3.3v3.9h-3.3V66.7h3l2.7,3.8
			c0.6,0.8,1.7,2.5,1.9,3c-0.1-0.6-0.1-2.3-0.1-3.3v-3.5H97v12.9H94.2z"/>
		<g>
			<path class="st2" d="M80.9,79.5l-0.7-2.1h-3.7l-0.7,2.1h-3.7l4.5-12.9h3.5l4.5,12.9H80.9z M78.4,70c-0.2,0.9-1.3,5.1-1.3,5.1h2.5
				C79.7,75,78.6,70.8,78.4,70z"/>
			<polygon class="st2" points="79.3,65.2 77.2,65.2 78.2,62.4 81.6,62.4 			"/>
		</g>
		<path class="st2" d="M67.7,66.7l-1.5,3.4c-0.8,1.7-1.3,3.1-1.6,3.9c-0.2-0.7-0.8-2.2-1.6-3.9l-1.5-3.4h-3.1v12.9h3.2v-3.1
			c0-1.3,0-2.4-0.1-3.4c0.4,1,1,2.4,1.4,3.4l0.7,1.6h1.8l0.7-1.6c0.4-0.9,1.1-2.4,1.4-3.4c-0.1,1-0.1,2.1-0.1,3.4v3.1h3.2V66.7H67.7
			z"/>
	</g>
	<polygon class="st3" points="67,28.1 67,21 37,21 37,28.1 7,28.1 7,41 97,41 97,28.1 	"/>
</g>
</svg>
