<?xml version="1.0" encoding="utf-8"?>
<!-- Generator: Adobe Illustrator 22.0.0, SVG Export Plug-In . SVG Version: 6.00 Build 0)  -->
<svg version="1.1" id="Capa_1" xmlns="http://www.w3.org/2000/svg" xmlns:xlink="http://www.w3.org/1999/xlink" x="0px" y="0px"
	 width="242.8px" height="54.7px" viewBox="0 0 242.8 54.7" style="enable-background:new 0 0 242.8 54.7;" xml:space="preserve">
<style type="text/css">
	.st0{fill:url(#SVGID_1_);}
	.st1{fill:url(#SVGID_2_);}
	.st2{fill:#4D4D4D;}
	.st3{fill:#FFFFFF;}
</style>
<g>
	
		<linearGradient id="SVGID_1_" gradientUnits="userSpaceOnUse" x1="5.75" y1="45.4256" x2="95.75" y2="45.4256" gradientTransform="matrix(1 0 0 -1 0 59.7756)">
		<stop  offset="0" style="stop-color:#0075BC"/>
		<stop  offset="0.1406" style="stop-color:#007FC3"/>
		<stop  offset="0.5166" style="stop-color:#5299D3"/>
		<stop  offset="0.8162" style="stop-color:#70AADD"/>
		<stop  offset="1" style="stop-color:#7AB0E0"/>
	</linearGradient>
	<polygon class="st0" points="70.1,11.6 70.1,4.4 31.5,4.4 31.5,11.6 5.8,11.6 5.8,24.4 35.8,24.4 35.8,17.3 65.8,17.3 65.8,24.4 
		95.8,24.4 95.8,11.6 	"/>
	
		<linearGradient id="SVGID_2_" gradientUnits="userSpaceOnUse" x1="5.75" y1="16.0756" x2="95.75" y2="16.0756" gradientTransform="matrix(1 0 0 -1 0 59.7756)">
		<stop  offset="0" style="stop-color:#0075BC"/>
		<stop  offset="0.1406" style="stop-color:#007FC3"/>
		<stop  offset="0.5166" style="stop-color:#5299D3"/>
		<stop  offset="0.8162" style="stop-color:#70AADD"/>
		<stop  offset="1" style="stop-color:#7AB0E0"/>
	</linearGradient>
	<rect x="5.8" y="37.3" class="st1" width="90" height="12.9"/>
	<g>
		<path class="st2" d="M115,27.5v14.4h-5V27.5h-5V23h15.1v4.5H115z"/>
		<path class="st2" d="M131.2,42c-4.5,0-7.9-2.3-7.9-8.4V22.8h5.1v10.8c0,2.3,0.9,3.8,2.8,3.8s2.8-1.5,2.8-3.8V22.8h5.1v10.8
			C139.3,39.7,135.8,42,131.2,42z"/>
		<path class="st2" d="M150.4,42c-5.4,0-8.2-4.1-8.2-9.7c0-6,3.4-9.7,8.2-9.7c4.4,0,6.2,2.1,7.5,5.6l-4.5,1.8
			c-0.6-1.8-1.3-2.8-2.9-2.8c-2.1,0-2.9,2.2-2.9,5.1c0,2.9,0.9,5.1,3.1,5.1c1.6,0,2.2-0.9,3.2-2.6l4.2,2.3
			C156.7,39.7,154.8,42,150.4,42z"/>
		<path class="st2" d="M168.8,42c-4.5,0-7.9-2.3-7.9-8.4V22.8h5.1v10.8c0,2.3,0.9,3.8,2.8,3.8s2.8-1.5,2.8-3.8V22.8h5.3v10.8
			C176.8,39.7,173.3,42,168.8,42z"/>
		<path class="st2" d="M232.8,41.7l-4.2-6.2c-0.7-1.2-2.3-3.5-2.8-4.4c0.1,0.9,0.1,3.4,0.1,4.8v5.7h-4.8V23h4.4l4,5.6
			c0.9,1.2,2.5,3.7,2.8,4.4c-0.1-0.9-0.1-3.4-0.1-4.8V23h4.8v18.9h-4.1V41.7z"/>
		<g>
			<path class="st2" d="M213.3,41.7l-1-3.1h-5.4l-1,3.1h-5.4l6.6-18.9h5.1l6.6,18.9H213.3z M209.6,27.8c-0.3,1.3-1.9,7.5-1.9,7.5
				h3.7C211.5,35.1,209.9,29,209.6,27.8z"/>
			<polygon class="st2" points="210.9,20.8 207.9,20.8 209.3,16.7 214.3,16.7 			"/>
		</g>
		<path class="st2" d="M194,23l-2.2,5c-1.2,2.5-1.9,4.5-2.3,5.7c-0.3-1-1.2-3.2-2.3-5.7l-2.2-5h-4.5v18.9h4.7v-4.5
			c0-1.9,0-3.5-0.1-5c0.6,1.5,1.5,3.5,2.1,5l1,2.3h2.6l1-2.3c0.6-1.3,1.6-3.5,2.1-5c-0.1,1.5-0.1,3.1-0.1,5v4.5h4.7V23H194z"/>
	</g>
	<polygon class="st3" points="65.8,24.4 65.8,17.3 35.8,17.3 35.8,24.4 5.8,24.4 5.8,37.3 95.8,37.3 95.8,24.4 	"/>
</g>
</svg>
