<?xml version="1.0" encoding="utf-8"?>
<!-- Generator: Adobe Illustrator 22.0.0, SVG Export Plug-In . SVG Version: 6.00 Build 0)  -->
<svg version="1.1" id="Layer_1" xmlns="http://www.w3.org/2000/svg" xmlns:xlink="http://www.w3.org/1999/xlink" x="0px" y="0px"
	 viewBox="0 0 23.7 22.1" style="enable-background:new 0 0 23.7 22.1;" xml:space="preserve">
<style type="text/css">
	.st0{fill:#95b219;}
</style>
<g>
	<path class="st0" d="M11.1,21c-0.3-0.1-0.6-0.2-0.8-0.3c-0.4-0.3-0.7-0.7-0.7-1.2c0-0.2,0-0.5,0-0.8c1.6,0,3.1,0,4.7,0
		c0,0.6,0,1.2-0.4,1.7c-0.3,0.3-0.6,0.5-1,0.6c0,0-0.1,0-0.1,0C12.1,21,11.6,21,11.1,21z"/>
	<path class="st0" d="M21.9,11.2c-0.2,0.3-0.4,0.4-0.8,0.4c-0.7,0-1.4,0-2.2,0c-0.4,0-0.7-0.4-0.6-0.8c0.1-0.2,0.3-0.4,0.5-0.4
		c0.8,0,1.6,0,2.4,0c0.3,0,0.4,0.2,0.6,0.4C21.9,11,21.9,11.1,21.9,11.2z"/>
	<path class="st0" d="M11.9,17.5c-0.7,0-1.5,0-2.2,0c-0.5,0-0.7-0.2-0.7-0.7c0-0.8-0.3-1.6-0.9-2.2C5.3,11.9,6.5,7.2,10.2,6
		c2.5-0.8,5.2,0.3,6.4,2.7c0.9,1.9,0.6,4.3-0.8,5.8c-0.4,0.5-0.8,1-0.9,1.6c0,0.2-0.1,0.5-0.1,0.7c0,0.4-0.2,0.6-0.6,0.6
		C13.4,17.5,12.6,17.5,11.9,17.5z M12.4,8.7c0-0.3-0.3-0.6-0.6-0.6C10.6,8.1,9.3,9,9,10.3c-0.1,0.3,0.1,0.6,0.4,0.7
		c0.3,0.1,0.6,0,0.7-0.4c0.1-0.3,0.2-0.6,0.4-0.8c0.3-0.3,0.8-0.5,1.2-0.5C12.2,9.3,12.4,9,12.4,8.7z"/>
	<path class="st0" d="M12.4,2.8c0,0.4,0,0.8,0,1.1c0,0.4-0.2,0.6-0.6,0.6c-0.3,0-0.6-0.3-0.6-0.6c0-0.8,0-1.5,0-2.3
		c0-0.4,0.2-0.6,0.6-0.6c0.3,0,0.6,0.3,0.6,0.6C12.4,2.1,12.4,2.4,12.4,2.8z"/>
	<path class="st0" d="M3.6,11.6c-0.4,0-0.8,0-1.1,0c-0.4,0-0.6-0.2-0.6-0.6s0.3-0.6,0.6-0.6c0.8,0,1.5,0,2.3,0
		c0.4,0,0.6,0.2,0.6,0.6s-0.3,0.6-0.6,0.6C4.4,11.6,4,11.6,3.6,11.6z"/>
	<path class="st0" d="M7.5,6c0,0.3-0.1,0.5-0.4,0.6C6.9,6.7,6.7,6.7,6.5,6.5C6.3,6.3,6,6,5.8,5.8c-0.3-0.3-0.7-0.7-1-1
		C4.7,4.7,4.6,4.4,4.7,4.2C4.8,4,4.9,3.8,5.2,3.8c0.2,0,0.4,0.1,0.5,0.2c0.6,0.5,1.1,1.1,1.7,1.7C7.4,5.8,7.4,5.9,7.5,6z"/>
	<path class="st0" d="M18.4,3.8c0.3,0,0.5,0.1,0.6,0.3c0.1,0.2,0.1,0.4-0.1,0.6c-0.1,0.1-0.2,0.3-0.4,0.4c-0.4,0.4-0.9,0.9-1.3,1.3
		c-0.2,0.2-0.4,0.2-0.6,0.1c-0.2-0.1-0.3-0.2-0.4-0.5c0-0.2,0-0.4,0.2-0.5C17,5.1,17.5,4.5,18.1,4C18.2,3.9,18.3,3.8,18.4,3.8z"/>
</g>
</svg>
