<?xml version="1.0" encoding="utf-8"?>
<!-- Generator: Adobe Illustrator 22.0.0, SVG Export Plug-In . SVG Version: 6.00 Build 0)  -->
<svg version="1.1" id="Capa_1" xmlns="http://www.w3.org/2000/svg" xmlns:xlink="http://www.w3.org/1999/xlink" x="0px" y="0px"
	 width="27px" height="27px" viewBox="0 0 27 27" style="enable-background:new 0 0 27 27;" xml:space="preserve">
<style type="text/css">
	.st0{fill:url(#SVGID_1_);}
	.st1{fill:url(#SVGID_2_);}
	.st2{fill:#FFFFFF;}
</style>
<title>twiter</title>
<radialGradient id="SVGID_1_" cx="-335.3896" cy="-472.1562" r="13.4975" gradientTransform="matrix(0 -1.982 -1.8439 0 -863.437 -635.6618)" gradientUnits="userSpaceOnUse">
	<stop  offset="0" style="stop-color:#FFDD55"/>
	<stop  offset="0.1" style="stop-color:#FFDD55"/>
	<stop  offset="0.5" style="stop-color:#FF543E"/>
	<stop  offset="1" style="stop-color:#C837AB"/>
</radialGradient>
<path class="st0" d="M13.5,0C7.9,0,6.2,0,5.9,0C4.7,0.1,4,0.3,3.2,0.7C2.6,1,2.2,1.4,1.7,1.8c-0.9,0.9-1.4,2-1.6,3.3
	C0,5.8,0,5.9,0,9.1c0,1.1,0,2.5,0,4.4c0,5.6,0,7.3,0,7.6c0.1,1.1,0.3,1.8,0.6,2.6c0.7,1.5,2.1,2.6,3.7,3c0.6,0.1,1.2,0.2,2,0.3
	c0.3,0,3.7,0,7.2,0s6.8,0,7.1,0c0.9,0,1.4-0.1,2-0.3c1.6-0.4,3-1.5,3.7-3c0.4-0.8,0.6-1.5,0.6-2.6c0-0.2,0-3.9,0-7.6
	c0-3.7,0-7.4,0-7.6c-0.1-1.1-0.3-1.8-0.6-2.6c-0.3-0.6-0.7-1.1-1.2-1.6c-0.9-0.9-2-1.4-3.3-1.6C21.3,0,21.1,0,17.9,0H13.5z"/>
<radialGradient id="SVGID_2_" cx="139.4892" cy="-63.3771" r="13.4975" gradientTransform="matrix(0.1739 0.8687 3.5818 -0.7172 198.2187 -164.6833)" gradientUnits="userSpaceOnUse">
	<stop  offset="0" style="stop-color:#3771C8"/>
	<stop  offset="0.128" style="stop-color:#3771C8"/>
	<stop  offset="1" style="stop-color:#6600FF;stop-opacity:0"/>
</radialGradient>
<path class="st1" d="M13.5,0C7.9,0,6.2,0,5.9,0C4.7,0.1,4,0.3,3.2,0.7C2.6,1,2.2,1.4,1.7,1.8c-0.9,0.9-1.4,2-1.6,3.3
	C0,5.8,0,5.9,0,9.1c0,1.1,0,2.5,0,4.4c0,5.6,0,7.3,0,7.6c0.1,1.1,0.3,1.8,0.6,2.6c0.7,1.5,2.1,2.6,3.7,3c0.6,0.1,1.2,0.2,2,0.3
	c0.3,0,3.7,0,7.2,0s6.8,0,7.1,0c0.9,0,1.4-0.1,2-0.3c1.6-0.4,3-1.5,3.7-3c0.4-0.8,0.6-1.5,0.6-2.6c0-0.2,0-3.9,0-7.6
	c0-3.7,0-7.4,0-7.6c-0.1-1.1-0.3-1.8-0.6-2.6c-0.3-0.6-0.7-1.1-1.2-1.6c-0.9-0.9-2-1.4-3.3-1.6C21.3,0,21.1,0,17.9,0H13.5z"/>
<path class="st2" d="M13.5,3.5c-2.7,0-3,0-4.1,0.1C8.3,3.6,7.6,3.8,7,4.1C6.3,4.3,5.8,4.7,5.2,5.2C4.6,5.8,4.3,6.3,4.1,7
	C3.8,7.6,3.6,8.3,3.6,9.4c0,1.1-0.1,1.4-0.1,4.1s0,3,0.1,4.1c0,1.1,0.2,1.8,0.5,2.4c0.3,0.7,0.6,1.2,1.1,1.8
	c0.6,0.6,1.1,0.9,1.8,1.2c0.6,0.2,1.4,0.4,2.4,0.5c1.1,0,1.4,0.1,4.1,0.1c2.7,0,3,0,4.1-0.1c1.1,0,1.8-0.2,2.4-0.5
	c0.7-0.3,1.2-0.6,1.8-1.2c0.6-0.6,0.9-1.1,1.2-1.8c0.2-0.6,0.4-1.4,0.5-2.4c0-1.1,0.1-1.4,0.1-4.1s0-3-0.1-4.1
	c0-1.1-0.2-1.8-0.5-2.4c-0.3-0.7-0.6-1.2-1.2-1.8c-0.6-0.6-1.1-0.9-1.8-1.1c-0.6-0.2-1.4-0.4-2.4-0.5C16.5,3.5,16.2,3.5,13.5,3.5
	L13.5,3.5z M12.6,5.3c0.3,0,0.6,0,0.9,0c2.7,0,3,0,4,0.1c1,0,1.5,0.2,1.9,0.3c0.5,0.2,0.8,0.4,1.1,0.7c0.3,0.3,0.6,0.7,0.7,1.1
	c0.1,0.4,0.3,0.9,0.3,1.9c0,1.1,0.1,1.4,0.1,4s0,3-0.1,4c0,1-0.2,1.5-0.3,1.9c-0.2,0.5-0.4,0.8-0.7,1.1c-0.3,0.3-0.7,0.6-1.1,0.7
	c-0.4,0.1-0.9,0.3-1.9,0.3c-1.1,0-1.4,0.1-4,0.1c-2.7,0-3,0-4-0.1c-1,0-1.5-0.2-1.9-0.3c-0.5-0.2-0.8-0.4-1.1-0.7
	c-0.3-0.3-0.6-0.7-0.7-1.1c-0.1-0.4-0.3-0.9-0.3-1.9c0-1.1-0.1-1.4-0.1-4s0-3,0.1-4c0-1,0.2-1.5,0.3-1.9c0.2-0.5,0.4-0.8,0.7-1.1
	c0.3-0.3,0.7-0.6,1.1-0.7C8,5.6,8.5,5.4,9.5,5.4C10.4,5.3,10.7,5.3,12.6,5.3L12.6,5.3z M18.8,7c-0.7,0-1.2,0.5-1.2,1.2
	c0,0.7,0.5,1.2,1.2,1.2S20,8.8,20,8.2S19.5,7,18.8,7L18.8,7z M13.5,8.4c-2.8,0-5.1,2.3-5.1,5.1s2.3,5.1,5.1,5.1
	c2.8,0,5.1-2.3,5.1-5.1S16.3,8.4,13.5,8.4L13.5,8.4z M13.5,10.2c1.8,0,3.3,1.5,3.3,3.3c0,1.8-1.5,3.3-3.3,3.3
	c-1.8,0-3.3-1.5-3.3-3.3C10.2,11.7,11.7,10.2,13.5,10.2z"/>
</svg>
